<svg xmlns="http://www.w3.org/2000/svg" enable-background="new 0 0 64 64" viewBox="0 0 64 64"><path d="M18,21h-4c-1.7,0-3,1.3-3,3s1.3,3,3,3h4c1.7,0,3-1.3,3-3S19.7,21,18,21z M18,25h-4c-0.6,0-1-0.4-1-1s0.4-1,1-1h4
			c0.6,0,1,0.4,1,1S18.6,25,18,25z"/><path d="M59,16c0-6.1-4.9-11-11-11S37,9.9,37,16c0,1.2,0.2,2.4,0.6,3.5h-4c-0.8,0-1.5-0.3-2-0.8l-4.7-4.4
			c-0.9-0.9-2.1-1.3-3.4-1.3H10c-2.8,0-5,2.2-5,5v14v22c0,2.8,2.2,5,5,5h44c2.8,0,5-2.2,5-5V32v-7.5c0-1.3-0.5-2.5-1.3-3.4
			C58.5,19.6,59,17.9,59,16z M48,7c5,0,9,4,9,9s-4,9-9,9s-9-4-9-9S43,7,48,7z M57,54c0,1.7-1.3,3-3,3H10c-1.7,0-3-1.3-3-3V33h50V54z
			 M57,24.5V31H7V18c0-1.7,1.3-3,3-3h13.4c0.8,0,1.5,0.3,2,0.8l4.7,4.4c0.9,0.9,2.1,1.3,3.4,1.3h4.9C40.4,24.8,44,27,48,27
			c3.4,0,6.5-1.6,8.5-4.1C56.8,23.4,57,24,57,24.5z"/><path d="M47.5 21.8c-.6 0-1 .4-1 1V23c0 .6.4 1 1 1s1-.4 1-1v-.3C48.5 22.2 48.1 21.8 47.5 21.8zM45.9 13.2c.4-.5 1-.8 1.6-.8 1.1 0 2 .9 2 2s-.9 2-2 2c-.6 0-1 .5-1 1v3.2c0 .6.4 1 1 1s1-.4 1-1v-2.3c1.7-.4 3-2 3-3.9 0-2.2-1.8-4-4-4-1.3 0-2.5.6-3.2 1.6-.3.4-.2 1.1.2 1.4C44.9 13.8 45.6 13.7 45.9 13.2z"/></svg>